<mxfile host="Electron" modified="2024-02-01T14:44:52.520Z" agent="Mozilla/5.0 (X11; Linux x86_64) AppleWebKit/537.36 (KHTML, like Gecko) draw.io/21.2.8 Chrome/112.0.5615.165 Electron/24.2.0 Safari/537.36" etag="3mk4-bKo5lolTZXk1aqy" version="21.2.8" type="device">
  <diagram name="Seite-1" id="1DdBGCkQfgjVxy8bUu3-">
    <mxGraphModel dx="876" dy="544" grid="1" gridSize="10" guides="1" tooltips="1" connect="1" arrows="1" fold="1" page="1" pageScale="1" pageWidth="827" pageHeight="1169" math="0" shadow="0">
      <root>
        <mxCell id="0" />
        <mxCell id="1" parent="0" />
        <mxCell id="JNvmlaV5e6_XIAKTObFB-1" value="entity single_step is&#xa;    port (&#xa;        i_run            : in  std_logic;&#xa;        i_cpu_step_fin   : in  std_logic;&#xa;        o_cpu_en         : out std_logic&#xa;    );&#xa;end entity single_step;" style="text;whiteSpace=wrap;html=1;" vertex="1" parent="1">
          <mxGeometry x="430" y="30" width="220" height="120" as="geometry" />
        </mxCell>
        <mxCell id="JNvmlaV5e6_XIAKTObFB-2" value="" style="rounded=0;whiteSpace=wrap;html=1;" vertex="1" parent="1">
          <mxGeometry width="240" height="90" as="geometry" />
        </mxCell>
        <mxCell id="JNvmlaV5e6_XIAKTObFB-3" value="i_run" style="text;html=1;align=left;verticalAlign=middle;resizable=0;points=[];autosize=1;strokeColor=none;fillColor=none;" vertex="1" parent="1">
          <mxGeometry width="50" height="30" as="geometry" />
        </mxCell>
        <mxCell id="JNvmlaV5e6_XIAKTObFB-5" value="i_cpu_step_fin" style="text;html=1;align=left;verticalAlign=middle;resizable=0;points=[];autosize=1;strokeColor=none;fillColor=none;" vertex="1" parent="1">
          <mxGeometry y="60" width="100" height="30" as="geometry" />
        </mxCell>
        <mxCell id="JNvmlaV5e6_XIAKTObFB-7" value="o_cpu_en" style="text;html=1;align=right;verticalAlign=middle;resizable=0;points=[];autosize=1;strokeColor=none;fillColor=none;" vertex="1" parent="1">
          <mxGeometry x="160" y="30" width="80" height="30" as="geometry" />
        </mxCell>
        <mxCell id="JNvmlaV5e6_XIAKTObFB-9" value="single_step" style="text;html=1;strokeColor=none;fillColor=none;align=center;verticalAlign=middle;whiteSpace=wrap;rounded=0;" vertex="1" parent="1">
          <mxGeometry x="90" y="30" width="60" height="30" as="geometry" />
        </mxCell>
      </root>
    </mxGraphModel>
  </diagram>
</mxfile>
